HIERARCHY
ROOT Hips
{
  OFFSET 51.6018 95.5423 12.6596
  CHANNELS 6 Xposition Yposition Zposition Zrotation Xrotation Yrotation
  JOINT spine
  {
    OFFSET 0 7.96568 0.458067
    CHANNELS 3 Zrotation Xrotation Yrotation
    JOINT spine1
    {
      OFFSET 0 10.2431 0
      CHANNELS 3 Zrotation Xrotation Yrotation
      JOINT spine2
      {
        OFFSET 0 9.81475 0
        CHANNELS 3 Zrotation Xrotation Yrotation
        JOINT Neck
        {
          OFFSET 0 25.1986 1.20138
          CHANNELS 3 Zrotation Xrotation Yrotation
          JOINT Head
          {
            OFFSET 0 7.61315 0
            CHANNELS 3 Zrotation Xrotation Yrotation
            End Site
            {
              OFFSET 0 18.4281 -6.07733
            }
          }
        }
        JOINT RightShoulder
        {
          OFFSET -4.1327 10.5992 -0.575451
          CHANNELS 3 Zrotation Xrotation Yrotation
          JOINT RightArm
          {
            OFFSET 0 13.9018 0
            CHANNELS 3 Zrotation Xrotation Yrotation
            JOINT RightArmRoll
            {
              OFFSET 0 7.01789 0
              CHANNELS 3 Zrotation Xrotation Yrotation
              JOINT RightForeArm
              {
                OFFSET 0 20.4406 0
                CHANNELS 3 Zrotation Xrotation Yrotation
                JOINT RightForeArmRoll
                {
                  OFFSET 0 7.87516 0
                  CHANNELS 3 Zrotation Xrotation Yrotation
                  JOINT RightHand
                  {
                    OFFSET 0 15.8037 0
                    CHANNELS 3 Zrotation Xrotation Yrotation
                    End Site
                    {
                      OFFSET 0 0 0
                    }
                  }
                }
              }
            }
          }
        }
        JOINT LeftShoulder
        {
          OFFSET 4.1327 10.5992 -0.575451
          CHANNELS 3 Zrotation Xrotation Yrotation
          JOINT LeftArm
          {
            OFFSET 0 13.9018 0
            CHANNELS 3 Zrotation Xrotation Yrotation
            JOINT LeftArmRoll
            {
              OFFSET 0 7.01789 0
              CHANNELS 3 Zrotation Xrotation Yrotation
              JOINT LeftForeArm
              {
                OFFSET 0 20.4406 0
                CHANNELS 3 Zrotation Xrotation Yrotation
                JOINT LeftForeArmRoll
                {
                  OFFSET 0 7.87516 0
                  CHANNELS 3 Zrotation Xrotation Yrotation
                  JOINT LeftHand
                  {
                    OFFSET 0 15.8037 0
                    CHANNELS 3 Zrotation Xrotation Yrotation
                    End Site
                    {
                      OFFSET 0 0 0
                    }
                  }
                }
              }
            }
          }
        }
      }
    }
  }
  JOINT RightUpLeg
  {
    OFFSET -7.06048 -1.2947 -1.0861
    CHANNELS 3 Zrotation Xrotation Yrotation
    JOINT RightUpLegRoll
    {
      OFFSET 0 18.5308 0
      CHANNELS 3 Zrotation Xrotation Yrotation
      JOINT RightLeg
      {
        OFFSET 0 -22.9476 0
        CHANNELS 3 Zrotation Xrotation Yrotation
        JOINT RightLegRoll
        {
          OFFSET 0 23.0226 0
          CHANNELS 3 Zrotation Xrotation Yrotation
          JOINT RightFoot
          {
            OFFSET 0 19.1625 0
            CHANNELS 3 Zrotation Xrotation Yrotation
            JOINT RightToeBase
            {
              OFFSET 0 16.0188 0
              CHANNELS 3 Zrotation Xrotation Yrotation
              End Site
              {
                OFFSET 0.00678979 7.75782 -0.894206
              }
            }
          }
        }
      }
    }
  }
  JOINT LeftUpLeg
  {
    OFFSET 7.06048 -1.2947 -1.0861
    CHANNELS 3 Zrotation Xrotation Yrotation
    JOINT LeftUpLegRoll
    {
      OFFSET 0 18.5309 0
      CHANNELS 3 Zrotation Xrotation Yrotation
      JOINT LeftLeg
      {
        OFFSET 0 22.9475 0
        CHANNELS 3 Zrotation Xrotation Yrotation
        JOINT LeftLegRoll
        {
          OFFSET 0 23.2355 0
          CHANNELS 3 Zrotation Xrotation Yrotation
          JOINT LeftFoot
          {
            OFFSET 0 18.9496 0
            CHANNELS 3 Zrotation Xrotation Yrotation
            JOINT LeftToeBase
            {
              OFFSET 0 16.0188 0
              CHANNELS 3 Zrotation Xrotation Yrotation
              End Site
              {
                OFFSET -0.0304289 7.75781 -0.894207
              }
            }
          }
        }
      }
    }
  }
}
MOTION
Frames: 5
Frame Time: 0.00208333
52.5655 112.28 15.7156 -1.97978 2.99213 1.26921 0.6627 -1.73436 0.278559 1.33003 0.536616 0.491013 1.3248 2.18141 0.468933 4.43576 25.1666 -4.35135 -1.7263 -7.76537 -2.99696 40.9155 -10.7407 -6.79319 32.5388 23.6879 63.1659 3.3794e-006 2.05698e-006 1.09392e-006 -10.5439 33.8246 6.96873 -1.6112e-005 -1.72356e-006 -3.00145 8.02995 -4.95139 0.697635 -42.6495 -5.38198 2.26288 -27.3797 28.9584 -56.7847 6.36111e-015 -1.59028e-015 -6.36111e-015 3.89877 30.2015 -3.2182 4.36283e-006 -5.85671e-007 3.00089 -8.03018 -4.95137 -0.697623 166.203 5.34577 4.91329 180 7.01494e-015 178.714 175.351 7.38167 179.803 1.37232e-006 -3.99963e-006 0.123299 -17.3588 65.7637 17.8373 8.13649 25.2327 -3.48773 -162.648 9.36012 -6.15184 4.54188e-006 -4.6773e-006 -1.1042 -0.704053 -11.3383 0.244662 4.60539e-006 2.17844e-006 -0.193885 19.3826 68.4793 -19.9511 -8.13649 25.2327 3.48773 
52.5652 112.117 15.7098 -1.94881 3.03593 1.26121 0.663016 -1.73883 0.278646 1.33067 0.527682 0.49121 1.32544 2.17247 0.469118 4.32049 25.2135 -4.33768 -1.65831 -7.74693 -3.01299 40.558 -10.8371 -6.8813 31.9804 23.9301 63.677 3.3794e-006 2.05698e-006 1.09392e-006 -10.7304 34.023 7.12488 -1.6112e-005 -1.72356e-006 -3.00145 8.02995 -4.95139 0.697635 -42.4906 -5.4896 2.34214 -26.7627 29.0568 -57.1457 2.64834e-031 4.77083e-015 -3.18055e-015 3.96934 30.3796 -3.27726 4.36283e-006 -5.85671e-007 3.00089 -8.03018 -4.95137 -0.697623 166.028 5.40726 4.98459 180 7.01494e-015 178.712 175.385 7.3315 179.8 1.37232e-006 -3.99963e-006 0.121517 -17.3621 65.7633 17.8367 8.13649 25.2327 -3.48773 -162.529 9.36753 -6.22422 4.54188e-006 -4.6773e-006 -1.10617 -0.713352 -11.1788 0.239921 4.60539e-006 2.17844e-006 -0.189591 19.3591 68.4458 -19.9218 -8.13649 25.2327 3.48773 
52.5328 111.944 15.6914 -1.91563 3.07832 1.25363 0.663643 -1.7432 0.278425 1.33193 0.518941 0.490757 1.3267 2.16373 0.468644 4.18256 25.2637 -4.31406 -1.57336 -7.73079 -3.02451 40.1907 -10.9327 -6.96913 31.4252 24.1699 64.1891 3.3794e-006 2.05698e-006 1.09392e-006 -10.9141 34.2071 7.27864 -1.6112e-005 -1.72356e-006 -3.00145 8.02995 -4.95139 0.697635 -42.3397 -5.60809 2.43136 -26.146 29.1644 -57.5093 -2.64834e-031 -1.59028e-015 -9.54166e-015 4.04014 30.547 -3.33615 4.36283e-006 -5.85671e-007 3.00089 -8.03018 -4.95137 -0.697623 165.851 5.47133 5.05538 180 7.01493e-015 178.71 175.422 7.29144 179.796 1.37232e-006 -3.99963e-006 0.119699 -17.3698 65.7696 17.8407 8.13649 25.2327 -3.48773 -162.413 9.36978 -6.29534 4.54188e-006 -4.6773e-006 -1.10845 -0.724028 -11.0126 0.235049 4.60539e-006 2.17844e-006 -0.185108 19.3341 68.4104 -19.8907 -8.13649 25.2327 3.48773 
52.5695 111.785 15.6998 -1.88054 3.11945 1.24663 0.664526 -1.74751 0.27793 1.33369 0.510328 0.489732 1.32847 2.15512 0.467588 4.02518 25.317 -4.28189 -1.47374 -7.71698 -3.03214 39.8145 -11.0281 -7.05737 30.8734 24.408 64.7019 3.3794e-006 2.05698e-006 1.09392e-006 -11.095 34.3794 7.43051 -1.6112e-005 -1.72356e-006 -3.00145 8.02995 -4.95139 0.697635 -42.1948 -5.73577 2.52905 -25.5303 29.2798 -57.8758 6.36111e-015 0 -1.27222e-014 4.11167 30.7058 -3.39528 4.36283e-006 -5.85671e-007 3.00089 -8.03018 -4.95137 -0.697623 165.671 5.53752 5.12574 180 7.01493e-015 178.708 175.462 7.26037 179.793 1.37232e-006 -3.99963e-006 0.117851 -17.3815 65.7818 17.8487 8.13649 25.2327 -3.48773 -162.3 9.368 -6.36524 4.54188e-006 -4.6773e-006 -1.111 -0.735641 -10.8415 0.230099 4.60539e-006 2.17844e-006 -0.180472 19.3079 68.3732 -19.8582 -8.13649 25.2327 3.48773 
52.6089 111.603 15.711 -1.84386 3.15943 1.24044 0.665609 -1.75178 0.277196 1.33584 0.50178 0.488209 1.33064 2.14657 0.466028 3.85155 25.3732 -4.24257 -1.36175 -7.70553 -3.0365 39.4303 -11.1238 -7.14668 30.3257 24.6451 65.2152 3.3794e-006 2.05698e-006 1.09392e-006 -11.2732 34.5422 7.58103 -1.6112e-005 -1.72356e-006 -3.00145 8.02995 -4.95139 0.697635 -42.0542 -5.87096 2.63376 -24.9163 29.4013 -58.2453 -3.18055e-015 -1.74931e-014 3.18055e-015 4.18445 30.8582 -3.4551 4.36283e-006 -5.85671e-007 3.00089 -8.03018 -4.95137 -0.697623 165.49 5.60534 5.19572 180 7.01492e-015 178.707 175.505 7.23712 179.79 1.37232e-006 -3.99963e-006 0.115982 -17.3965 65.7992 17.8603 8.13649 25.2327 -3.48773 -162.189 9.36334 -6.43395 4.54188e-006 -4.6773e-006 -1.11379 -0.747753 -10.6669 0.225126 4.60539e-006 2.17844e-006 -0.175721 19.2808 68.3347 -19.8246 -8.13649 25.2327 3.48773 
